<svg xmlns="http://www.w3.org/2000/svg" viewBox="0 0 1380 530" width="100%" height="100%">
  <style>
    .section-header { font-family: sans-serif; font-size: 13px; font-weight: bold; fill: #f3f4f6; letter-spacing: 0.5px; }
    .code-text { font-family: monospace; font-size: 12px; fill: #24292e; white-space: pre; }
    .bold { font-weight: bold; }
  </style>

  <!-- Background Canvas -->
  <rect width="1380" height="530" fill="#f8fafc" rx="8" />

  <!-- ================= COLUMN 1: MEDIUM LEVEL (PART 1) ================= -->
  <!-- Box Background & Margin -->
  <rect x="20" y="20" width="430" height="490" fill="#e8f0fe" rx="6" stroke="#d2e3fc" stroke-width="1.5" />
  <!-- Header Bar -->
  <rect x="20" y="20" width="430" height="40" fill="#374151" rx="6" />
  <rect x="20" y="40" width="430" height="20" fill="#374151" />
  <text x="45" y="45" class="section-header">MEDIUM LEVEL (PART 1: 01–10)</text>

  <!-- Content -->
  <text x="40" y="85" class="code-text"><tspan class="bold" fill="#174ea6">c-medium-problems/</tspan></text>
  <text x="40" y="105" class="code-text">├── 01_binary_search/</text>
  <text x="40" y="125" class="code-text">│   └── binary_search.c</text>
  <text x="40" y="145" class="code-text">├── 02_matrix_multiplication/</text>
  <text x="40" y="165" class="code-text">│   └── matrix_mult.c</text>
  <text x="40" y="185" class="code-text">├── 03_check_anagram/</text>
  <text x="40" y="205" class="code-text">│   └── anagram.c</text>
  <text x="40" y="225" class="code-text">├── 04_missing_number/</text>
  <text x="40" y="245" class="code-text">│   └── missing.c</text>
  <text x="40" y="265" class="code-text">├── 05_sorting_algos/</text>
  <text x="40" y="285" class="code-text">│   └── sort.c</text>
  <text x="40" y="305" class="code-text">├── 06_remove_duplicates/</text>
  <text x="40" y="325" class="code-text">│   └── duplicates.c</text>
  <text x="40" y="345" class="code-text">├── 07_gcd_lcm/</text>
  <text x="40" y="365" class="code-text">│   └── gcd_lcm.c</text>
  <text x="40" y="385" class="code-text">├── 08_armstrong_number/</text>
  <text x="40" y="405" class="code-text">│   └── armstrong.c</text>
  <text x="40" y="425" class="code-text">├── 09_rotate_array/</text>
  <text x="40" y="445" class="code-text">│   └── rotate.c</text>
  <text x="40" y="465" class="code-text">└── 10_string_compression/</text>
  <text x="40" y="485" class="code-text">    └── compress.c</text>


  <!-- ================= COLUMN 2: MEDIUM LEVEL (PART 2) ================= -->
  <!-- Box Background & Margin -->
  <rect x="465" y="20" width="430" height="490" fill="#eef2f7" rx="6" stroke="#cbd5e1" stroke-width="1.5" />
  <!-- Header Bar -->
  <rect x="465" y="20" width="430" height="40" fill="#374151" rx="6" />
  <rect x="465" y="40" width="430" height="20" fill="#374151" />
  <text x="490" y="45" class="section-header">MEDIUM LEVEL (PART 2: 11–20)</text>

  <!-- Content -->
  <text x="485" y="85" class="code-text"><tspan class="bold" fill="#334155">c-medium-problems/</tspan></text>
  <text x="485" y="105" class="code-text">├── 11_rotate_matrix_90/</text>
  <text x="485" y="125" class="code-text">│   └── rotate_matrix.c</text>
  <text x="485" y="145" class="code-text">├── 12_first_non_repeating/</text>
  <text x="485" y="165" class="code-text">│   └── non_repeating.c</text>
  <text x="485" y="185" class="code-text">├── 13_merge_sorted_arrays/</text>
  <text x="485" y="205" class="code-text">│   └── merge.c</text>
  <text x="485" y="225" class="code-text">├── 14_reverse_linked_list/</text>
  <text x="485" y="245" class="code-text">│   └── reverse_list.c</text>
  <text x="485" y="265" class="code-text">├── 15_intersection_union/</text>
  <text x="485" y="285" class="code-text">│   └── set_ops.c</text>
  <text x="485" y="305" class="code-text">├── 16_string_rotation/</text>
  <text x="485" y="325" class="code-text">│   └── str_rotation.c</text>
  <text x="485" y="345" class="code-text">├── 17_majority_element/</text>
  <text x="485" y="365" class="code-text">│   └── majority.c</text>
  <text x="485" y="385" class="code-text">├── 18_decimal_to_binary/</text>
  <text x="485" y="405" class="code-text">│   └── dec_bin.c</text>
  <text x="485" y="425" class="code-text">├── 19_longest_word/</text>
  <text x="485" y="445" class="code-text">│   └── longest_word.c</text>
  <text x="485" y="465" class="code-text">└── 20_dynamic_array/</text>
  <text x="485" y="485" class="code-text">    └── dyn_array.c</text>


  <!-- ================= COLUMN 3: HARD & ADVANCED LEVELS (Updated Color: Light Pink) ================= -->
  <!-- Box Background & Margin -->
  <rect x="910" y="20" width="450" height="490" fill="#fce7f3" rx="6" stroke="#fbcfe8" stroke-width="1.5" />
  <!-- Header Bar -->
  <rect x="910" y="20" width="450" height="40" fill="#374151" rx="6" />
  <rect x="910" y="40" width="450" height="20" fill="#374151" />
  <text x="935" y="45" class="section-header">HARD &amp; ADVANCED LEVELS</text>

  <!-- Content -->
  <text x="930" y="85" class="code-text"><tspan class="bold" fill="#9d174d">c-hard-problems/</tspan></text>
  <text x="930" y="105" class="code-text">├── 01_custom_malloc/</text>
  <text x="930" y="125" class="code-text">├── 02_lru_cache/</text>
  <text x="930" y="145" class="code-text">├── 03_infix_evaluator/</text>
  <text x="930" y="165" class="code-text">├── 04_sudoku_solver/</text>
  <text x="930" y="185" class="code-text">├── 05_dijkstras_algorithm/</text>
  <text x="930" y="205" class="code-text">├── 06_kmp_matching/</text>
  <text x="930" y="225" class="code-text">├── 07_huffman_coding/</text>
  <text x="930" y="245" class="code-text">├── 08_lcs_reconstruction/</text>
  <text x="930" y="265" class="code-text">├── 09_n_queens/</text>
  <text x="930" y="285" class="code-text">└── 10_thread_pool/</text>
  
  <text x="930" y="315" class="code-text"><tspan class="bold" fill="#701a75">c-advanced-problems/</tspan></text>
  <text x="930" y="335" class="code-text">├── 01_lock_free_queue/</text>
  <text x="930" y="355" class="code-text">├── 02_bytecode_vm/</text>
  <text x="930" y="375" class="code-text">├── 03_epoll_server/</text>
  <text x="930" y="395" class="code-text">├── 04_garbage_collector/</text>
  <text x="930" y="415" class="code-text">├── 05_disk_btree/</text>
  <text x="930" y="435" class="code-text">├── 06_ray_tracer/</text>
  <text x="930" y="455" class="code-text">├── 07_elf_parser/</text>
  <text x="930" y="475" class="code-text">├── 08_bigint_calculator/</text>
  <text x="930" y="495" class="code-text">├── 09_ip_routing_trie/</text>
  <text x="930" y="515" class="code-text">└── 10_cow_rbtree/</text>

</svg>
